<svg version="1" xmlns="http://www.w3.org/2000/svg" width="533.333" height="533.333" viewBox="0 0 400.000000 400.000000"><path d="M.3 95.2c.2 52.4.7 96.4 1.2 97.7.6 1.9.5 2.2-.5 1.6-1-.6-1.1.5-.5 5.6.4 3.5.6 8.6.5 11.4 0 2.7-.3 46.3-.6 96.8L0 400h400V0l-91.2.4c-50.2.3-94.2.5-97.8.5-3.6 0-52.5-.2-108.8-.5L-.1-.1l.4 95.3zm193.2-17.7c3.9.9 8.8 2.1 11 2.6 2.2.6 5.2 1.3 6.8 1.6 1.5.3 3 .9 3.3 1.4.3.5 1.8.9 3.5.9 1.6 0 2.9.4 2.9 1 0 .5 1.4 1 3 1 1.7 0 3 .4 3 1 0 .5 1.4 1 3 1 1.7 0 3 .4 3 1 0 .5 1.1 1 2.5 1s2.5.4 2.5 1c0 .5 1.1 1 2.5 1s2.5.4 2.5 1c0 .5 1 1 2.3 1 1.3 0 2.8.5 3.4 1.1.8.8 2.1.7 4.7-.2 2.9-1.1 4.1-1.1 5.6-.1 1.1.7 3.6 1.2 5.5 1.2s3.5.4 3.5 1c0 .5.9 1 2 1s2 .4 2 1c0 .5.7 1 1.6 1 2.5 0 13.2 11.7 16.4 18 5.7 11.4 7.2 19.4 6.7 38-.2 9.1-1 20.2-1.7 24.6l-1.4 8.1 3.7 5.6c2 3 3.7 6.2 3.7 7.1 0 .8.4 1.7.9 2 1.6 1 2.4 7.8 2.4 21.1 0 12.3-.4 16.4-2.3 21-.4 1.1-1.4 3.5-2.1 5.3-.6 1.9-2.9 4.7-5.1 6.4-2.1 1.7-3.8 3.7-3.8 4.5 0 2-7 22.7-8.1 23.7-.5.6-.9 1.8-.9 2.8 0 1-.4 1.8-1 1.8-.5 0-1 .9-1 2s-.3 2-.8 2c-.4 0-1.4 1.5-2.1 3.2-.8 1.8-2.3 4-3.3 4.9-1 .9-1.8 2.1-1.8 2.8 0 .6-.4 1.1-1 1.1-.5 0-1 .5-1 1 0 1.4-10.7 12-12.1 12-.6 0-1.9.8-2.8 1.8-.9 1-3.1 2.5-4.8 3.3-1.8.7-3.3 1.7-3.3 2.1 0 .5-.6.8-1.3.8-.7 0-3.2.9-5.5 2-2.2 1.1-4.7 2-5.5 2-.7 0-1.7.3-2.1.7-3.1 3.2-29.7 5.4-40.9 3.4-6.4-1.1-15-3.4-19.2-5.1-1.1-.5-3.7-1.4-5.7-2.1-2.1-.7-3.8-1.7-3.8-2.1 0-.4-.9-.8-2-.8s-2-.5-2-1c0-.6-.7-1-1.5-1s-1.5-.5-1.5-1c0-.6-.6-1-1.3-1-.7 0-1.9-.9-2.7-2-.8-1.1-1.8-2-2.3-2-1.1 0-8.7-7.1-8.7-8.2 0-.4-1.4-2.1-3-3.6-1.7-1.6-3-3.4-3-4.1 0-.6-.4-1.1-.8-1.1-.5 0-1.5-1.2-2.3-2.8-.8-1.5-1.6-2.9-1.9-3.2-1.2-1.2-3-5.1-3-6.4 0-.8-.4-1.6-.8-1.8-.8-.3-4.9-12.6-7.2-21.6-.6-2.3-1.7-4.2-2.4-4.2-1.8 0-7.8-6-9.4-9.4-3.7-7.8-4.2-10.7-4.9-26-.3-7 0-11.3.6-11.9.6-.6 1.1-2.8 1.1-4.9 0-2.1.5-3.8 1-3.8.6 0 1-.9 1-2.1 0-2.2 3-7 6.3-10.3 2-2 2-5.1-.3-15.1-1.5-6.9-3-30.5-2.3-39 .9-12 4.2-19.9 12.2-28.4 1.7-1.8 3.1-4.4 3.1-5.7 0-5.3 2.6-10.8 7.7-16 2.8-3 5.8-5.4 6.7-5.4.9 0 1.6-.3 1.6-.8 0-1.1 8.4-4.3 15-5.6 4.8-.9 30.6.4 37.5 1.9z"/><path d="M153 83c0 .5-1.3 1-3 1-1.6 0-3 .4-3 1 0 .5-.9 1-2 1s-2 .4-2 1c0 .5-.7 1-1.5 1-2 0-6.5 4.5-6.5 6.5 0 .8-.4 1.5-1 1.5-.5 0-1 .9-1 2s-.4 2-1 2c-.5 0-1 2.2-1 4.8 0 4.4-.4 5.1-4 8.3-2.2 1.9-4 3.9-4 4.6 0 .6-.4 1.3-1 1.5-.5.1-2 2.8-3.2 5.8-2 5-2.2 7.3-2.2 24 0 14.6.4 20.2 1.9 26.5 1.8 8 2.8 15.6 4.1 31.7.4 4.9 1 8.8 1.3 8.8 1 0 3.1-19.4 3.1-28.2 0-4.2.5-8 1-8.3.6-.3 1-3.1 1-6.1 0-3 .5-5.4 1-5.4.6 0 1-1.5 1-3.4s.5-3.8 1-4.1c.6-.3 1-1.7 1-3.1 0-1.3.5-2.4 1-2.4.6 0 1-.9 1-2s.5-2 1-2c.6 0 1-.9 1-2s.5-2 1-2c.6 0 1-.7 1-1.5 0-1.5 4.2-6.5 5.5-6.5.3 0 2.1 1.5 3.9 3.2 10.4 10.2 31.1 23.8 36.3 23.8.7 0 1.3.3 1.3.7 0 .5 3.5 1.9 7.8 3.1 4.2 1.3 8.5 2.8 9.4 3.3 2.6 1.3 12.5 1.1 15-.4 5.2-2.8 12.8-12 12.8-15.2 0-.8.5-1.5 1-1.5.6 0 1-1.1 1-2.5s.5-2.5 1-2.5c.6 0 1-1.3 1-2.8 0-1.5.4-3.2.9-3.8.5-.5 1.1-2.7 1.3-4.9.2-2.8.8-4.1 2.1-4.3 1.3-.3 1.7.3 1.7 2.7 0 1.7.4 3.9.9 4.9.5.9 1.5 3 2.2 4.7 3.1 7 14.2 19.3 19.5 21.7 1.3.6 2.4 1.5 2.4 2 0 .4.6.8 1.3.8.7 0 2.3.9 3.5 2 1.2 1.1 2.8 2 3.7 2 .8 0 1.5.4 1.5 1 0 .5.7 1 1.6 1 3.8 0 4.4 2.3 4.4 17.5 0 11.9.3 15.4 1.8 18.3l1.7 3.7.7-13.5c.4-7.4 1.2-16.9 1.8-21 2.5-18.6 3.2-30 2.1-39.2-1.5-13-2.2-16.8-3.2-16.8-.5 0-.9-.6-.9-1.4 0-4.7-9.5-17.7-14-19.1-1.1-.3-2-1.1-2-1.6s-.9-.9-2-.9-2-.5-2-1c0-.6-3.5-1-8.5-1-8.2 0-16.5-1.6-16.5-3.2 0-.5-.9-.8-1.9-.8-1.1 0-2.3-.5-2.6-1-.3-.6-1.7-1-3.1-1-1.3 0-2.4-.5-2.4-1 0-.6-1.3-1-3-1-1.6 0-3-.5-3-1 0-.6-1.3-1-3-1-1.6 0-3-.5-3-1 0-.6-1.3-1-3-1-1.6 0-3-.5-3-1 0-.6-1.6-1-3.5-1s-3.5-.5-3.5-1c0-.6-1.8-1-4-1s-4-.4-4-.9c0-1.3-9-2.2-28.2-2.7-11.3-.3-16.8-.2-16.8.6z"/><path d="M237 179c0 .5-2.2 1-5 1-4.1 0-5 .3-5 1.8 0 2.3 3.9 4.7 5.3 3.3 1.3-1.3 21.7-1.5 21.7-.2 0 .5.9 1.1 2 1.4 1.1.3 2 1.2 2 2.1 0 2 2.7 2.1 4.6.2 2-2 1.8-3.3-1.1-6.1-1.5-1.6-3.6-2.5-5.4-2.5-1.6 0-3.3-.5-3.6-1-.3-.6-4-1-8.1-1-4.3 0-7.4.4-7.4 1zM152 181c0 .5-.9 1-2 1s-2 .4-2 .9-.7 1.7-1.6 2.5c-1.4 1.4-1.4 1.8 0 3.1 2 2 3.9 1.9 5.6-.5.8-1.1 2.2-2 3.2-2 .9 0 2-.5 2.3-1 .3-.6 3-1 6-1s5.7.4 6 1c.3.5 3.1 1 6.1 1 5.9 0 7.9-1.7 5.1-4.5-1.2-1.2-4.3-1.5-15.1-1.5-8.4 0-13.6.4-13.6 1zM182 261c0 .5-1.1 1-2.5 1-3.8 0-7.5 4.2-7.5 8.5 0 1.9.5 3.5 1.1 3.5.5 0 .8-.4.5-.9-.3-.5.7-2.3 2.4-4.1 2.5-2.7 3.8-3.2 9.7-3.8 3.7-.4 8.5-.5 10.5-.1 3.7.6 5.1-.7 4.1-3.9-.6-1.5-18.3-1.7-18.3-.2zM207.2 262.2c.3 2.1.8 2.3 5.8 2 5.9-.3 16 1.6 16 3 0 .4.5.7 1.1.5.6-.1 1.6.7 2.2 1.8 2.8 4.7 4.7 6.8 4.7 5.1 0-.9-.4-1.6-1-1.6-.5 0-1-1.8-1-4 0-3-.7-4.7-2.5-6.5-2.3-2.4-3-2.5-14-2.5-11.5 0-11.6 0-11.3 2.2zM170 275c0 .5.5 1 1.1 1 .5 0 .7-.5.4-1-.3-.6-.8-1-1.1-1-.2 0-.4.4-.4 1zM272.5 289c-.3.5-.1 1 .4 1 .6 0 1.1-.5 1.1-1 0-.6-.2-1-.4-1-.3 0-.8.4-1.1 1zM135 289.7c0 .5.9 1.9 2 3.1 1.1 1.2 2 2.5 2 2.9.1 3 16.7 19.2 19.8 19.3.6 0 1.2.4 1.2 1 0 .5.7 1 1.5 1s1.5.4 1.5 1c0 .5.7 1 1.5 1s1.5.4 1.5 1c0 .5.9 1 2 1s2 .4 2 1c0 .5 1.3 1 2.9 1 1.6 0 3.1.4 3.3 1 .2.5 1.5 1.1 3.1 1.2 1.5.1 2.7.6 2.7 1s1.5.8 3.4.8 3.8.4 4.1 1c.4.6 7 1 16.6 1 9.9 0 15.9-.4 15.9-1s1.1-1 2.5-1c3.2 0 10.5-2.2 10.5-3.2 0-.5 1.1-.8 2.5-.8s2.5-.5 2.5-1c0-.6.9-1 2-1s2-.5 2-1c0-.6.7-1 1.5-1s1.5-.5 1.5-1c0-.6.7-1 1.5-1 3.2 0 21.4-18.4 21.5-21.8 0-.6.5-1.2 1-1.2.6 0 1-.7 1-1.5s-.4-1.5-1-1.5c-.5 0-1 .5-1 1.1 0 1.7-14.1 14.9-16 14.9-.6 0-1 .4-1 1 0 .5-.7 1-1.5 1s-1.5.4-1.5.8c0 .5-1.6 1.4-3.5 2.2-1.9.8-3.5 1.7-3.5 2.2 0 .4-1.1.8-2.4.8-1.4 0-2.8.4-3.1 1-.3.5-1.9 1-3.6 1-1.6 0-2.9.4-2.9 1 0 .5-1.3 1-3 1-1.6 0-3 .4-3 .9 0 .9-12.4 2.2-20.5 2.2s-20.5-1.3-20.5-2.2c0-.5-1.8-.9-4-.9s-4-.5-4-1c0-.6-1.1-1-2.4-1-1.4 0-2.8-.5-3.1-1-.3-.6-1.5-1-2.6-1-1 0-1.9-.5-1.9-1 0-.6-.9-1-2-1s-2-.4-2-.8c0-.5-1.6-1.4-3.5-2.2-1.9-.8-3.5-1.7-3.5-2.1 0-.4-.8-1-1.8-1.3-1.8-.6-12.2-9.9-12.2-11 0-.3-1.3-2-3-3.8-1.6-1.7-3-2.7-3-2.1z"/></svg>